<?xml version="1.0" standalone="no"?><!DOCTYPE svg PUBLIC "-//W3C//DTD SVG 1.1//EN" "http://www.w3.org/Graphics/SVG/1.1/DTD/svg11.dtd"><svg t="1504861486207" class="icon" style="" viewBox="0 0 1024 1024" version="1.1" xmlns="http://www.w3.org/2000/svg" p-id="2424" xmlns:xlink="http://www.w3.org/1999/xlink" width="16" height="16"><defs><style type="text/css"></style></defs><path d="M67.8 255.3h890v595h-890z" fill="#DE2910" p-id="2425"></path><path d="M215.4 323l18.8 57.9h61l-49.3 35.8 18.8 58-49.3-35.8-49.3 35.8 18.8-58-49.3-35.8h61zM374.2 292.7l-1.2 20 18.6 7.4-19.5 5-1.3 20-10.7-17-19.4 5 12.8-15.4-10.7-17 18.6 7.4zM442.6 357.6l-9.1 17.9 14.2 14.2-19.8-3.2-9.2 17.9-3.1-19.9-19.8-3.1 17.9-9.1-3.1-19.8 14.1 14.2zM422.1 438.9l6.1 19.1h20.1l-16.2 11.8 6.1 19.1L422 477l-16.2 11.8 6.2-19-16.2-11.8h20.1zM374.1 500.1l-1.3 20 18.6 7.4-19.4 5-1.3 20-10.7-17-19.5 5 12.8-15.4-10.7-17 18.7 7.4z" fill="#FFDE00" p-id="2426"></path></svg>